<svg id="svgQrWrapper" viewBox="0 0 300 300" xmlns="http://www.w3.org/2000/svg" xmlns:xlink="http://www.w3.org/1999/xlink" width="300" height="300" style="width: 100%; height: 100%; background-color: transparent;"><svg fill="#071013" xmlns="http://www.w3.org/2000/svg" width="300" height="300" viewBox="0 0 300 300"><path d="M259.93.91H41.08a3.9,3.9,0,0,0-3.9,3.89V295a3.9,3.9,0,0,0,3.9,3.89H259.93a3.9,3.9,0,0,0,3.9-3.89V4.8A3.9,3.9,0,0,0,259.93.91ZM70.27,73.64H231.43v5.2H70.27ZM232,263.81a3.85,3.85,0,0,1-3.85,3.85H73.81A3.85,3.85,0,0,1,70,263.81V107.9A3.85,3.85,0,0,1,73.81,104H228.17A3.85,3.85,0,0,1,232,107.9Z"/><g transform="translate(76, 111)scale(0.5)" fill="none"><svg width="300" height="300"><style>.background-color{ fill: #fff; }.dot-color{ fill: #ffffff; }.corners-square-color-0-0{ fill: #ffffff; }.corners-dot-color-0-0{ fill: #ffffff; }.corners-square-color-1-0{ fill: #ffffff; }.corners-dot-color-1-0{ fill: #ffffff; }.corners-square-color-0-1{ fill: #ffffff; }.corners-dot-color-0-1{ fill: #ffffff; }</style><defs/><g class="dot-color"><path d="M 5 105v 5a 5 5, 0, 0, 0, 5 5h 5v -5a 5 5, 0, 0, 0, -5 -5" transform="rotate(90,10,110)"/><path d="M 5 125v 5a 5 5, 0, 0, 0, 5 5h 5v -5a 5 5, 0, 0, 0, -5 -5" transform="rotate(90,10,130)"/><path d="M 5 155v 10h 10v -5a 5 5, 0, 0, 0, -5 -5" transform="rotate(-90,10,160)"/><path d="M 5 165v 10h 10v -5a 5 5, 0, 0, 0, -5 -5" transform="rotate(90,10,170)"/><path d="M 5 185v 10h 10v -5a 5 5, 0, 0, 0, -5 -5" transform="rotate(-90,10,190)"/><rect x="5" y="195" width="10" height="10" transform="rotate(0,10,200)"/><path d="M 15 115v 10h 10v -5a 5 5, 0, 0, 0, -5 -5" transform="rotate(-90,20,120)"/><path d="M 15 155v 10h 10v -5a 5 5, 0, 0, 0, -5 -5" transform="rotate(90,20,160)"/><rect x="15" y="185" width="10" height="10" transform="rotate(0,20,190)"/><path d="M 15 195v 10h 10v -5a 5 5, 0, 0, 0, -5 -5" transform="rotate(90,20,200)"/><path d="M 25 95v 10h 10v -5a 5 5, 0, 0, 0, -5 -5" transform="rotate(-90,30,100)"/><rect x="25" y="105" width="10" height="10" transform="rotate(0,30,110)"/><path d="M 25 115v 10h 10v -5a 5 5, 0, 0, 0, -5 -5" transform="rotate(90,30,120)"/><path d="M 25 135v 10h 10v -5a 5 5, 0, 0, 0, -5 -5" transform="rotate(-90,30,140)"/><path d="M 25 145v 10h 10v -5a 5 5, 0, 0, 0, -5 -5" transform="rotate(90,30,150)"/><path d="M 25 165v 10h 10v -5a 5 5, 0, 0, 0, -5 -5" transform="rotate(-90,30,170)"/><rect x="25" y="175" width="10" height="10" transform="rotate(0,30,180)"/><path d="M 35 85v 10h 10v -5a 5 5, 0, 0, 0, -5 -5" transform="rotate(-90,40,90)"/><rect x="35" y="95" width="10" height="10" transform="rotate(0,40,100)"/><path d="M 35 105v 10h 10v -5a 5 5, 0, 0, 0, -5 -5" transform="rotate(90,40,110)"/><path d="M 35 155v 10h 10v -5a 5 5, 0, 0, 0, -5 -5" transform="rotate(-90,40,160)"/><rect x="35" y="165" width="10" height="10" transform="rotate(0,40,170)"/><rect x="35" y="175" width="10" height="10" transform="rotate(0,40,180)"/><rect x="35" y="185" width="10" height="10" transform="rotate(0,40,190)"/><path d="M 35 195v 10h 10v -5a 5 5, 0, 0, 0, -5 -5" transform="rotate(90,40,200)"/><path d="M 45 115v 5a 5 5, 0, 0, 0, 5 5h 5v -5a 5 5, 0, 0, 0, -5 -5" transform="rotate(90,50,120)"/><path d="M 45 155v 10h 10v -5a 5 5, 0, 0, 0, -5 -5" transform="rotate(90,50,160)"/><path d="M 45 175v 10h 10v -5a 5 5, 0, 0, 0, -5 -5" transform="rotate(90,50,180)"/><path d="M 45 205v 10h 10v -5a 5 5, 0, 0, 0, -5 -5" transform="rotate(-90,50,210)"/><path d="M 55 85v 10h 10v -5a 5 5, 0, 0, 0, -5 -5" transform="rotate(-90,60,90)"/><path d="M 55 105v 10h 10v -5a 5 5, 0, 0, 0, -5 -5" transform="rotate(-90,60,110)"/><path d="M 55 165v 10h 10v -5a 5 5, 0, 0, 0, -5 -5" transform="rotate(-90,60,170)"/><rect x="55" y="205" width="10" height="10" transform="rotate(0,60,210)"/><rect x="65" y="85" width="10" height="10" transform="rotate(0,70,90)"/><path d="M 65 105v 10h 10v -5a 5 5, 0, 0, 0, -5 -5" transform="rotate(90,70,110)"/><path d="M 65 125v 10h 10v -5a 5 5, 0, 0, 0, -5 -5" transform="rotate(-90,70,130)"/><path d="M 65 145v 5a 5 5, 0, 0, 0, 5 5h 5v -5a 5 5, 0, 0, 0, -5 -5" transform="rotate(90,70,150)"/><rect x="65" y="165" width="10" height="10" transform="rotate(0,70,170)"/><path d="M 65 185v 10h 10v -5a 5 5, 0, 0, 0, -5 -5" transform="rotate(-90,70,190)"/><rect x="65" y="205" width="10" height="10" transform="rotate(0,70,210)"/><rect x="75" y="85" width="10" height="10" transform="rotate(0,80,90)"/><rect x="75" y="95" width="10" height="10" transform="rotate(0,80,100)"/><path d="M 75 115v 10h 10v -5a 5 5, 0, 0, 0, -5 -5" transform="rotate(-90,80,120)"/><rect x="75" y="125" width="10" height="10" transform="rotate(0,80,130)"/><path d="M 75 155v 10h 10v -5a 5 5, 0, 0, 0, -5 -5" transform="rotate(-90,80,160)"/><rect x="75" y="165" width="10" height="10" transform="rotate(0,80,170)"/><rect x="75" y="185" width="10" height="10" transform="rotate(0,80,190)"/><rect x="75" y="205" width="10" height="10" transform="rotate(0,80,210)"/><path d="M 85 15v 10h 10v -5a 5 5, 0, 0, 0, -5 -5" transform="rotate(-90,90,20)"/><path d="M 85 25v 10h 10v -5a 5 5, 0, 0, 0, -5 -5" transform="rotate(90,90,30)"/><path d="M 85 65v 5a 5 5, 0, 0, 0, 5 5h 5v -5a 5 5, 0, 0, 0, -5 -5" transform="rotate(90,90,70)"/><rect x="85" y="95" width="10" height="10" transform="rotate(0,90,100)"/><rect x="85" y="105" width="10" height="10" transform="rotate(0,90,110)"/><rect x="85" y="115" width="10" height="10" transform="rotate(0,90,120)"/><rect x="85" y="125" width="10" height="10" transform="rotate(0,90,130)"/><path d="M 85 135v 10h 10v -5a 5 5, 0, 0, 0, -5 -5" transform="rotate(90,90,140)"/><rect x="85" y="155" width="10" height="10" transform="rotate(0,90,160)"/><rect x="85" y="165" width="10" height="10" transform="rotate(0,90,170)"/><rect x="85" y="175" width="10" height="10" transform="rotate(0,90,180)"/><rect x="85" y="185" width="10" height="10" transform="rotate(0,90,190)"/><rect x="85" y="195" width="10" height="10" transform="rotate(0,90,200)"/><path d="M 85 205v 10h 10v -5a 5 5, 0, 0, 0, -5 -5" transform="rotate(90,90,210)"/><path d="M 85 225v 10h 10v -5a 5 5, 0, 0, 0, -5 -5" transform="rotate(-90,90,230)"/><rect x="85" y="235" width="10" height="10" transform="rotate(0,90,240)"/><path d="M 85 255v 10h 10v -5a 5 5, 0, 0, 0, -5 -5" transform="rotate(-90,90,260)"/><path d="M 95 5v 5a 5 5, 0, 0, 0, 5 5h 5v -5a 5 5, 0, 0, 0, -5 -5" transform="rotate(90,100,10)"/><path d="M 95 35v 10h 10v -5a 5 5, 0, 0, 0, -5 -5" transform="rotate(-90,100,40)"/><rect x="95" y="45" width="10" height="10" transform="rotate(0,100,50)"/><rect x="95" y="95" width="10" height="10" transform="rotate(0,100,100)"/><rect x="95" y="125" width="10" height="10" transform="rotate(0,100,130)"/><rect x="95" y="155" width="10" height="10" transform="rotate(0,100,160)"/><path d="M 95 165v 10h 10v -5a 5 5, 0, 0, 0, -5 -5" transform="rotate(90,100,170)"/><rect x="95" y="185" width="10" height="10" transform="rotate(0,100,190)"/><rect x="95" y="225" width="10" height="10" transform="rotate(0,100,230)"/><rect x="95" y="235" width="10" height="10" transform="rotate(0,100,240)"/><rect x="95" y="255" width="10" height="10" transform="rotate(0,100,260)"/><rect x="95" y="265" width="10" height="10" transform="rotate(0,100,270)"/><rect x="95" y="275" width="10" height="10" transform="rotate(0,100,280)"/><rect x="95" y="285" width="10" height="10" transform="rotate(0,100,290)"/><path d="M 105 25v 10h 10v -5a 5 5, 0, 0, 0, -5 -5" transform="rotate(-90,110,30)"/><rect x="105" y="35" width="10" height="10" transform="rotate(0,110,40)"/><path d="M 105 45v 10h 10v -5a 5 5, 0, 0, 0, -5 -5" transform="rotate(90,110,50)"/><path d="M 105 65v 10h 10v -5a 5 5, 0, 0, 0, -5 -5" transform="rotate(-90,110,70)"/><rect x="105" y="75" width="10" height="10" transform="rotate(0,110,80)"/><rect x="105" y="85" width="10" height="10" transform="rotate(0,110,90)"/><path d="M 105 95v 10h 10v -5a 5 5, 0, 0, 0, -5 -5" transform="rotate(90,110,100)"/><path d="M 105 115v 10h 10v -5a 5 5, 0, 0, 0, -5 -5" transform="rotate(-90,110,120)"/><path d="M 105 125v 10h 10v -5a 5 5, 0, 0, 0, -5 -5" transform="rotate(90,110,130)"/><path d="M 105 175v 10h 10v -5a 5 5, 0, 0, 0, -5 -5" transform="rotate(-90,110,180)"/><rect x="105" y="185" width="10" height="10" transform="rotate(0,110,190)"/><rect x="105" y="195" width="10" height="10" transform="rotate(0,110,200)"/><rect x="105" y="205" width="10" height="10" transform="rotate(0,110,210)"/><path d="M 105 215v 10h 10v -5a 5 5, 0, 0, 0, -5 -5" transform="rotate(90,110,220)"/><rect x="105" y="235" width="10" height="10" transform="rotate(0,110,240)"/><path d="M 105 285v 10h 10v -5a 5 5, 0, 0, 0, -5 -5" transform="rotate(90,110,290)"/><path d="M 115 15v 10h 10v -5a 5 5, 0, 0, 0, -5 -5" transform="rotate(-90,120,20)"/><rect x="115" y="25" width="10" height="10" transform="rotate(0,120,30)"/><rect x="115" y="35" width="10" height="10" transform="rotate(0,120,40)"/><rect x="115" y="75" width="10" height="10" transform="rotate(0,120,80)"/><path d="M 115 105v 10h 10v -5a 5 5, 0, 0, 0, -5 -5" transform="rotate(-90,120,110)"/><path d="M 115 135v 10h 10v -5a 5 5, 0, 0, 0, -5 -5" transform="rotate(-90,120,140)"/><path d="M 115 155v 10h 10v -5a 5 5, 0, 0, 0, -5 -5" transform="rotate(-90,120,160)"/><path d="M 115 165v 10h 10v -5a 5 5, 0, 0, 0, -5 -5" transform="rotate(90,120,170)"/><rect x="115" y="185" width="10" height="10" transform="rotate(0,120,190)"/><rect x="115" y="195" width="10" height="10" transform="rotate(0,120,200)"/><path d="M 115 225v 10h 10v -5a 5 5, 0, 0, 0, -5 -5" transform="rotate(-90,120,230)"/><path d="M 115 235v 10h 10v -5a 5 5, 0, 0, 0, -5 -5" transform="rotate(90,120,240)"/><path d="M 115 255v 10h 10v -5a 5 5, 0, 0, 0, -5 -5" transform="rotate(-90,120,260)"/><path d="M 125 35v 10h 10v -5a 5 5, 0, 0, 0, -5 -5" transform="rotate(90,130,40)"/><path d="M 125 55v 10h 10v -5a 5 5, 0, 0, 0, -5 -5" transform="rotate(-90,130,60)"/><rect x="125" y="65" width="10" height="10" transform="rotate(0,130,70)"/><rect x="125" y="75" width="10" height="10" transform="rotate(0,130,80)"/><rect x="125" y="85" width="10" height="10" transform="rotate(0,130,90)"/><rect x="125" y="95" width="10" height="10" transform="rotate(0,130,100)"/><rect x="125" y="105" width="10" height="10" transform="rotate(0,130,110)"/><path d="M 125 115v 10h 10v -5a 5 5, 0, 0, 0, -5 -5" transform="rotate(90,130,120)"/><rect x="125" y="135" width="10" height="10" transform="rotate(0,130,140)"/><rect x="125" y="145" width="10" height="10" transform="rotate(0,130,150)"/><rect x="125" y="195" width="10" height="10" transform="rotate(0,130,200)"/><rect x="125" y="205" width="10" height="10" transform="rotate(0,130,210)"/><rect x="125" y="215" width="10" height="10" transform="rotate(0,130,220)"/><rect x="125" y="225" width="10" height="10" transform="rotate(0,130,230)"/><rect x="125" y="255" width="10" height="10" transform="rotate(0,130,260)"/><path d="M 125 275v 5a 5 5, 0, 0, 0, 5 5h 5v -5a 5 5, 0, 0, 0, -5 -5" transform="rotate(90,130,280)"/><path d="M 135 5v 10h 10v -5a 5 5, 0, 0, 0, -5 -5" transform="rotate(-90,140,10)"/><path d="M 135 25v 5a 5 5, 0, 0, 0, 5 5h 5v -5a 5 5, 0, 0, 0, -5 -5" transform="rotate(90,140,30)"/><path d="M 135 55v 10h 10v -5a 5 5, 0, 0, 0, -5 -5" transform="rotate(90,140,60)"/><path d="M 135 125v 10h 10v -5a 5 5, 0, 0, 0, -5 -5" transform="rotate(-90,140,130)"/><path d="M 135 145v 10h 10v -5a 5 5, 0, 0, 0, -5 -5" transform="rotate(90,140,150)"/><path d="M 135 165v 10h 10v -5a 5 5, 0, 0, 0, -5 -5" transform="rotate(-90,140,170)"/><rect x="135" y="175" width="10" height="10" transform="rotate(0,140,180)"/><rect x="135" y="185" width="10" height="10" transform="rotate(0,140,190)"/><rect x="135" y="195" width="10" height="10" transform="rotate(0,140,200)"/><path d="M 135 205v 10h 10v -5a 5 5, 0, 0, 0, -5 -5" transform="rotate(90,140,210)"/><path d="M 135 225v 10h 10v -5a 5 5, 0, 0, 0, -5 -5" transform="rotate(90,140,230)"/><rect x="135" y="255" width="10" height="10" transform="rotate(0,140,260)"/><path d="M 135 285v 10h 10v -5a 5 5, 0, 0, 0, -5 -5" transform="rotate(-90,140,290)"/><rect x="145" y="5" width="10" height="10" transform="rotate(0,150,10)"/><path d="M 145 15v 10h 10v -5a 5 5, 0, 0, 0, -5 -5" transform="rotate(90,150,20)"/><path d="M 145 45v 5a 5 5, 0, 0, 0, 5 5h 5v -5a 5 5, 0, 0, 0, -5 -5" transform="rotate(90,150,50)"/><path d="M 145 65v 5a 5 5, 0, 0, 0, 5 5h 5v -5a 5 5, 0, 0, 0, -5 -5" transform="rotate(90,150,70)"/><path d="M 145 95v 10h 10v -5a 5 5, 0, 0, 0, -5 -5" transform="rotate(-90,150,100)"/><rect x="145" y="105" width="10" height="10" transform="rotate(0,150,110)"/><path d="M 145 125v 10h 10v -5a 5 5, 0, 0, 0, -5 -5" transform="rotate(90,150,130)"/><path d="M 145 155v 10h 10v -5a 5 5, 0, 0, 0, -5 -5" transform="rotate(-90,150,160)"/><path d="M 145 165v 10h 10v -5a 5 5, 0, 0, 0, -5 -5" transform="rotate(90,150,170)"/><path d="M 145 195v 10h 10v -5a 5 5, 0, 0, 0, -5 -5" transform="rotate(90,150,200)"/><rect x="145" y="255" width="10" height="10" transform="rotate(0,150,260)"/><rect x="145" y="265" width="10" height="10" transform="rotate(0,150,270)"/><rect x="145" y="275" width="10" height="10" transform="rotate(0,150,280)"/><path d="M 145 285v 10h 10v -5a 5 5, 0, 0, 0, -5 -5" transform="rotate(90,150,290)"/><path d="M 155 35v 10h 10v -5a 5 5, 0, 0, 0, -5 -5" transform="rotate(-90,160,40)"/><path d="M 155 55v 10h 10v -5a 5 5, 0, 0, 0, -5 -5" transform="rotate(-90,160,60)"/><path d="M 155 75v 10h 10v -5a 5 5, 0, 0, 0, -5 -5" transform="rotate(-90,160,80)"/><rect x="155" y="85" width="10" height="10" transform="rotate(0,160,90)"/><rect x="155" y="95" width="10" height="10" transform="rotate(0,160,100)"/><rect x="155" y="105" width="10" height="10" transform="rotate(0,160,110)"/><path d="M 155 145v 10h 10v -5a 5 5, 0, 0, 0, -5 -5" transform="rotate(-90,160,150)"/><path d="M 155 155v 10h 10v -5a 5 5, 0, 0, 0, -5 -5" transform="rotate(90,160,160)"/><path d="M 155 175v 10h 10v -5a 5 5, 0, 0, 0, -5 -5" transform="rotate(-90,160,180)"/><path d="M 155 205v 5a 5 5, 0, 0, 0, 5 5h 5v -5a 5 5, 0, 0, 0, -5 -5" transform="rotate(90,160,210)"/><path d="M 155 225v 10h 10v -5a 5 5, 0, 0, 0, -5 -5" transform="rotate(-90,160,230)"/><path d="M 155 255v 10h 10v -5a 5 5, 0, 0, 0, -5 -5" transform="rotate(90,160,260)"/><path d="M 155 275v 10h 10v -5a 5 5, 0, 0, 0, -5 -5" transform="rotate(90,160,280)"/><path d="M 165 25v 10h 10v -5a 5 5, 0, 0, 0, -5 -5" transform="rotate(-90,170,30)"/><rect x="165" y="35" width="10" height="10" transform="rotate(0,170,40)"/><rect x="165" y="45" width="10" height="10" transform="rotate(0,170,50)"/><rect x="165" y="55" width="10" height="10" transform="rotate(0,170,60)"/><path d="M 165 65v 10h 10v -5a 5 5, 0, 0, 0, -5 -5" transform="rotate(90,170,70)"/><path d="M 165 105v 10h 10v -5a 5 5, 0, 0, 0, -5 -5" transform="rotate(90,170,110)"/><path d="M 165 125v 10h 10v -5a 5 5, 0, 0, 0, -5 -5" transform="rotate(-90,170,130)"/><path d="M 165 135v 10h 10v -5a 5 5, 0, 0, 0, -5 -5" transform="rotate(90,170,140)"/><path d="M 165 175v 10h 10v -5a 5 5, 0, 0, 0, -5 -5" transform="rotate(90,170,180)"/><path d="M 165 225v 10h 10v -5a 5 5, 0, 0, 0, -5 -5" transform="rotate(90,170,230)"/><path d="M 165 245v 5a 5 5, 0, 0, 0, 5 5h 5v -5a 5 5, 0, 0, 0, -5 -5" transform="rotate(90,170,250)"/><path d="M 175 15v 10h 10v -5a 5 5, 0, 0, 0, -5 -5" transform="rotate(-90,180,20)"/><rect x="175" y="25" width="10" height="10" transform="rotate(0,180,30)"/><rect x="175" y="45" width="10" height="10" transform="rotate(0,180,50)"/><path d="M 175 75v 5a 5 5, 0, 0, 0, 5 5h 5v -5a 5 5, 0, 0, 0, -5 -5" transform="rotate(90,180,80)"/><path d="M 175 115v 10h 10v -5a 5 5, 0, 0, 0, -5 -5" transform="rotate(-90,180,120)"/><path d="M 175 125v 10h 10v -5a 5 5, 0, 0, 0, -5 -5" transform="rotate(90,180,130)"/><path d="M 175 195v 10h 10v -5a 5 5, 0, 0, 0, -5 -5" transform="rotate(-90,180,200)"/><rect x="175" y="205" width="10" height="10" transform="rotate(0,180,210)"/><path d="M 175 215v 10h 10v -5a 5 5, 0, 0, 0, -5 -5" transform="rotate(90,180,220)"/><path d="M 175 235v 5a 5 5, 0, 0, 0, 5 5h 5v -5a 5 5, 0, 0, 0, -5 -5" transform="rotate(90,180,240)"/><path d="M 175 255v 10h 10v -5a 5 5, 0, 0, 0, -5 -5" transform="rotate(-90,180,260)"/><path d="M 175 265v 10h 10v -5a 5 5, 0, 0, 0, -5 -5" transform="rotate(90,180,270)"/><path d="M 175 285v 10h 10v -5a 5 5, 0, 0, 0, -5 -5" transform="rotate(-90,180,290)"/><path d="M 185 5v 10h 10v -5a 5 5, 0, 0, 0, -5 -5" transform="rotate(-90,190,10)"/><rect x="185" y="15" width="10" height="10" transform="rotate(0,190,20)"/><path d="M 185 25v 10h 10v -5a 5 5, 0, 0, 0, -5 -5" transform="rotate(90,190,30)"/><rect x="185" y="45" width="10" height="10" transform="rotate(0,190,50)"/><rect x="185" y="55" width="10" height="10" transform="rotate(0,190,60)"/><path d="M 185 65v 10h 10v -5a 5 5, 0, 0, 0, -5 -5" transform="rotate(90,190,70)"/><path d="M 185 145v 10h 10v -5a 5 5, 0, 0, 0, -5 -5" transform="rotate(-90,190,150)"/><path d="M 185 155v 10h 10v -5a 5 5, 0, 0, 0, -5 -5" transform="rotate(90,190,160)"/><path d="M 185 185v 10h 10v -5a 5 5, 0, 0, 0, -5 -5" transform="rotate(-90,190,190)"/><rect x="185" y="195" width="10" height="10" transform="rotate(0,190,200)"/><path d="M 185 205v 10h 10v -5a 5 5, 0, 0, 0, -5 -5" transform="rotate(90,190,210)"/><path d="M 185 245v 5a 5 5, 0, 0, 0, 5 5h 5v -5a 5 5, 0, 0, 0, -5 -5" transform="rotate(90,190,250)"/><rect x="185" y="285" width="10" height="10" transform="rotate(0,190,290)"/><path d="M 195 35v 10h 10v -5a 5 5, 0, 0, 0, -5 -5" transform="rotate(-90,200,40)"/><path d="M 195 55v 10h 10v -5a 5 5, 0, 0, 0, -5 -5" transform="rotate(90,200,60)"/><path d="M 195 75v 10h 10v -5a 5 5, 0, 0, 0, -5 -5" transform="rotate(-90,200,80)"/><rect x="195" y="85" width="10" height="10" transform="rotate(0,200,90)"/><rect x="195" y="95" width="10" height="10" transform="rotate(0,200,100)"/><rect x="195" y="105" width="10" height="10" transform="rotate(0,200,110)"/><rect x="195" y="115" width="10" height="10" transform="rotate(0,200,120)"/><rect x="195" y="125" width="10" height="10" transform="rotate(0,200,130)"/><rect x="195" y="135" width="10" height="10" transform="rotate(0,200,140)"/><rect x="195" y="195" width="10" height="10" transform="rotate(0,200,200)"/><path d="M 195 215v 10h 10v -5a 5 5, 0, 0, 0, -5 -5" transform="rotate(-90,200,220)"/><rect x="195" y="225" width="10" height="10" transform="rotate(0,200,230)"/><rect x="195" y="235" width="10" height="10" transform="rotate(0,200,240)"/><path d="M 195 285v 10h 10v -5a 5 5, 0, 0, 0, -5 -5" transform="rotate(90,200,290)"/><path d="M 205 5v 10h 10v -5a 5 5, 0, 0, 0, -5 -5" transform="rotate(-90,210,10)"/><path d="M 205 15v 10h 10v -5a 5 5, 0, 0, 0, -5 -5" transform="rotate(90,210,20)"/><path d="M 205 35v 10h 10v -5a 5 5, 0, 0, 0, -5 -5" transform="rotate(90,210,40)"/><path d="M 205 65v 5a 5 5, 0, 0, 0, 5 5h 5v -5a 5 5, 0, 0, 0, -5 -5" transform="rotate(90,210,70)"/><rect x="205" y="95" width="10" height="10" transform="rotate(0,210,100)"/><rect x="205" y="115" width="10" height="10" transform="rotate(0,210,120)"/><rect x="205" y="125" width="10" height="10" transform="rotate(0,210,130)"/><path d="M 205 135v 10h 10v -5a 5 5, 0, 0, 0, -5 -5" transform="rotate(90,210,140)"/><path d="M 205 155v 10h 10v -5a 5 5, 0, 0, 0, -5 -5" transform="rotate(-90,210,160)"/><rect x="205" y="165" width="10" height="10" transform="rotate(0,210,170)"/><path d="M 205 185v 10h 10v -5a 5 5, 0, 0, 0, -5 -5" transform="rotate(-90,210,190)"/><rect x="205" y="195" width="10" height="10" transform="rotate(0,210,200)"/><rect x="205" y="205" width="10" height="10" transform="rotate(0,210,210)"/><rect x="205" y="215" width="10" height="10" transform="rotate(0,210,220)"/><rect x="205" y="225" width="10" height="10" transform="rotate(0,210,230)"/><rect x="205" y="235" width="10" height="10" transform="rotate(0,210,240)"/><rect x="205" y="245" width="10" height="10" transform="rotate(0,210,250)"/><path d="M 205 275v 5a 5 5, 0, 0, 0, 5 5h 5v -5a 5 5, 0, 0, 0, -5 -5" transform="rotate(90,210,280)"/><path d="M 215 85v 10h 10v -5a 5 5, 0, 0, 0, -5 -5" transform="rotate(-90,220,90)"/><rect x="215" y="95" width="10" height="10" transform="rotate(0,220,100)"/><path d="M 215 105v 10h 10v -5a 5 5, 0, 0, 0, -5 -5" transform="rotate(90,220,110)"/><rect x="215" y="155" width="10" height="10" transform="rotate(0,220,160)"/><path d="M 215 165v 10h 10v -5a 5 5, 0, 0, 0, -5 -5" transform="rotate(90,220,170)"/><rect x="215" y="205" width="10" height="10" transform="rotate(0,220,210)"/><rect x="215" y="245" width="10" height="10" transform="rotate(0,220,250)"/><rect x="215" y="255" width="10" height="10" transform="rotate(0,220,260)"/><path d="M 215 285v 10h 10v -5a 5 5, 0, 0, 0, -5 -5" transform="rotate(-90,220,290)"/><path d="M 225 115v 5a 5 5, 0, 0, 0, 5 5h 5v -5a 5 5, 0, 0, 0, -5 -5" transform="rotate(90,230,120)"/><path d="M 225 135v 10h 10v -5a 5 5, 0, 0, 0, -5 -5" transform="rotate(-90,230,140)"/><rect x="225" y="145" width="10" height="10" transform="rotate(0,230,150)"/><rect x="225" y="155" width="10" height="10" transform="rotate(0,230,160)"/><path d="M 225 175v 10h 10v -5a 5 5, 0, 0, 0, -5 -5" transform="rotate(-90,230,180)"/><rect x="225" y="185" width="10" height="10" transform="rotate(0,230,190)"/><rect x="225" y="205" width="10" height="10" transform="rotate(0,230,210)"/><path d="M 225 225v 5a 5 5, 0, 0, 0, 5 5h 5v -5a 5 5, 0, 0, 0, -5 -5" transform="rotate(90,230,230)"/><rect x="225" y="245" width="10" height="10" transform="rotate(0,230,250)"/><rect x="225" y="255" width="10" height="10" transform="rotate(0,230,260)"/><path d="M 225 265v 10h 10v -5a 5 5, 0, 0, 0, -5 -5" transform="rotate(90,230,270)"/><rect x="225" y="285" width="10" height="10" transform="rotate(0,230,290)"/><path d="M 235 105v 5a 5 5, 0, 0, 0, 5 5h 5v -5a 5 5, 0, 0, 0, -5 -5" transform="rotate(90,240,110)"/><path d="M 235 125v 10h 10v -5a 5 5, 0, 0, 0, -5 -5" transform="rotate(-90,240,130)"/><rect x="235" y="145" width="10" height="10" transform="rotate(0,240,150)"/><rect x="235" y="155" width="10" height="10" transform="rotate(0,240,160)"/><rect x="235" y="185" width="10" height="10" transform="rotate(0,240,190)"/><rect x="235" y="195" width="10" height="10" transform="rotate(0,240,200)"/><rect x="235" y="205" width="10" height="10" transform="rotate(0,240,210)"/><rect x="235" y="245" width="10" height="10" transform="rotate(0,240,250)"/><path d="M 235 255v 10h 10v -5a 5 5, 0, 0, 0, -5 -5" transform="rotate(90,240,260)"/><path d="M 235 275v 10h 10v -5a 5 5, 0, 0, 0, -5 -5" transform="rotate(-90,240,280)"/><path d="M 235 285v 10h 10v -5a 5 5, 0, 0, 0, -5 -5" transform="rotate(90,240,290)"/><path d="M 245 95v 5a 5 5, 0, 0, 0, 5 5h 5v -5a 5 5, 0, 0, 0, -5 -5" transform="rotate(90,250,100)"/><rect x="245" y="125" width="10" height="10" transform="rotate(0,250,130)"/><path d="M 245 135v 10h 10v -5a 5 5, 0, 0, 0, -5 -5" transform="rotate(90,250,140)"/><rect x="245" y="155" width="10" height="10" transform="rotate(0,250,160)"/><rect x="245" y="165" width="10" height="10" transform="rotate(0,250,170)"/><rect x="245" y="175" width="10" height="10" transform="rotate(0,250,180)"/><rect x="245" y="185" width="10" height="10" transform="rotate(0,250,190)"/><rect x="245" y="195" width="10" height="10" transform="rotate(0,250,200)"/><rect x="245" y="205" width="10" height="10" transform="rotate(0,250,210)"/><rect x="245" y="215" width="10" height="10" transform="rotate(0,250,220)"/><rect x="245" y="225" width="10" height="10" transform="rotate(0,250,230)"/><rect x="245" y="235" width="10" height="10" transform="rotate(0,250,240)"/><rect x="245" y="245" width="10" height="10" transform="rotate(0,250,250)"/><path d="M 255 115v 10h 10v -5a 5 5, 0, 0, 0, -5 -5" transform="rotate(-90,260,120)"/><path d="M 255 145v 5a 5 5, 0, 0, 0, 5 5h 5v -5a 5 5, 0, 0, 0, -5 -5" transform="rotate(90,260,150)"/><rect x="255" y="165" width="10" height="10" transform="rotate(0,260,170)"/><rect x="255" y="175" width="10" height="10" transform="rotate(0,260,180)"/><rect x="255" y="185" width="10" height="10" transform="rotate(0,260,190)"/><rect x="255" y="195" width="10" height="10" transform="rotate(0,260,200)"/><path d="M 255 205v 10h 10v -5a 5 5, 0, 0, 0, -5 -5" transform="rotate(90,260,210)"/><rect x="255" y="235" width="10" height="10" transform="rotate(0,260,240)"/><rect x="255" y="245" width="10" height="10" transform="rotate(0,260,250)"/><path d="M 255 275v 10h 10v -5a 5 5, 0, 0, 0, -5 -5" transform="rotate(-90,260,280)"/><path d="M 265 85v 10h 10v -5a 5 5, 0, 0, 0, -5 -5" transform="rotate(-90,270,90)"/><path d="M 265 105v 10h 10v -5a 5 5, 0, 0, 0, -5 -5" transform="rotate(-90,270,110)"/><rect x="265" y="115" width="10" height="10" transform="rotate(0,270,120)"/><path d="M 265 125v 10h 10v -5a 5 5, 0, 0, 0, -5 -5" transform="rotate(90,270,130)"/><rect x="265" y="165" width="10" height="10" transform="rotate(0,270,170)"/><path d="M 265 215v 5a 5 5, 0, 0, 0, 5 5h 5v -5a 5 5, 0, 0, 0, -5 -5" transform="rotate(90,270,220)"/><path d="M 265 245v 10h 10v -5a 5 5, 0, 0, 0, -5 -5" transform="rotate(90,270,250)"/><path d="M 265 265v 10h 10v -5a 5 5, 0, 0, 0, -5 -5" transform="rotate(-90,270,270)"/><rect x="265" y="275" width="10" height="10" transform="rotate(0,270,280)"/><path d="M 265 285v 10h 10v -5a 5 5, 0, 0, 0, -5 -5" transform="rotate(90,270,290)"/><path d="M 275 85v 10h 10v -5a 5 5, 0, 0, 0, -5 -5" transform="rotate(90,280,90)"/><rect x="275" y="105" width="10" height="10" transform="rotate(0,280,110)"/><path d="M 275 115v 10h 10v -5a 5 5, 0, 0, 0, -5 -5" transform="rotate(90,280,120)"/><path d="M 275 145v 10h 10v -5a 5 5, 0, 0, 0, -5 -5" transform="rotate(-90,280,150)"/><rect x="275" y="155" width="10" height="10" transform="rotate(0,280,160)"/><rect x="275" y="165" width="10" height="10" transform="rotate(0,280,170)"/><path d="M 275 255v 5a 5 5, 0, 0, 0, 5 5h 5v -5a 5 5, 0, 0, 0, -5 -5" transform="rotate(90,280,260)"/><path d="M 285 135v 5a 5 5, 0, 0, 0, 5 5h 5v -5a 5 5, 0, 0, 0, -5 -5" transform="rotate(90,290,140)"/><path d="M 285 165v 10h 10v -5a 5 5, 0, 0, 0, -5 -5" transform="rotate(90,290,170)"/><path d="M 285 205v 10h 10v -5a 5 5, 0, 0, 0, -5 -5" transform="rotate(-90,290,210)"/><path d="M 285 215v 10h 10v -5a 5 5, 0, 0, 0, -5 -5" transform="rotate(90,290,220)"/><path d="M 285 235v 10h 10v -5a 5 5, 0, 0, 0, -5 -5" transform="rotate(-90,290,240)"/><path d="M 285 245v 10h 10v -5a 5 5, 0, 0, 0, -5 -5" transform="rotate(90,290,250)"/><path d="M 285 265v 5a 5 5, 0, 0, 0, 5 5h 5v -5a 5 5, 0, 0, 0, -5 -5" transform="rotate(90,290,270)"/><path d="M 285 285v 5a 5 5, 0, 0, 0, 5 5h 5v -5a 5 5, 0, 0, 0, -5 -5" transform="rotate(90,290,290)"/></g><g class="corners-square-color-0-0"><path clip-rule="evenodd" d="M 5 30v 20a 25 25, 0, 0, 0, 25 25h 20a 25 25, 0, 0, 0, 25 -25v -20a 25 25, 0, 0, 0, -25 -25h -20a 25 25, 0, 0, 0, -25 25M 30 15h 20a 15 15, 0, 0, 1, 15 15v 20a 15 15, 0, 0, 1, -15 15h -20a 15 15, 0, 0, 1, -15 -15v -20a 15 15, 0, 0, 1, 15 -15" transform="rotate(0,40,40)"/></g><g class="corners-dot-color-0-0"><circle cx="40" cy="40" r="15" transform="rotate(0,40,40)"/></g><g class="corners-square-color-1-0"><path clip-rule="evenodd" d="M 225 30v 20a 25 25, 0, 0, 0, 25 25h 20a 25 25, 0, 0, 0, 25 -25v -20a 25 25, 0, 0, 0, -25 -25h -20a 25 25, 0, 0, 0, -25 25M 250 15h 20a 15 15, 0, 0, 1, 15 15v 20a 15 15, 0, 0, 1, -15 15h -20a 15 15, 0, 0, 1, -15 -15v -20a 15 15, 0, 0, 1, 15 -15" transform="rotate(90,260,40)"/></g><g class="corners-dot-color-1-0"><circle cx="260" cy="40" r="15" transform="rotate(90,260,40)"/></g><g class="corners-square-color-0-1"><path clip-rule="evenodd" d="M 5 250v 20a 25 25, 0, 0, 0, 25 25h 20a 25 25, 0, 0, 0, 25 -25v -20a 25 25, 0, 0, 0, -25 -25h -20a 25 25, 0, 0, 0, -25 25M 30 235h 20a 15 15, 0, 0, 1, 15 15v 20a 15 15, 0, 0, 1, -15 15h -20a 15 15, 0, 0, 1, -15 -15v -20a 15 15, 0, 0, 1, 15 -15" transform="rotate(-90,40,260)"/></g><g class="corners-dot-color-0-1"><circle cx="40" cy="260" r="15" transform="rotate(-90,40,260)"/></g></svg></g></svg><g transform="translate(150,59)"><style>
               .small162{
                  fill:#ffffff;
                  font-size:40px;
                  font-family: Tahoma, sans-serif;
                  }</style><text x="0" y="-4" text-anchor="middle" class="small162">SCAN ME</text></g></svg>